IGES file created for a long box (10.0 x 2.0).                          S      1
1H,,1H;,4HIrit,10Hlongbox.igs,12HIrit Ver. 14,12HIrit Ver. 14,32,38,    G      1
6,308,15,7HUnknown,1.0,2,2HMM,1,0.01,13H260506.140000,0.0001,10.0,      G      2
7HUnknown,7HUnknown,9,0,13H260506.140000;                               G      3
     128       1       0       1       0       0       0       000000000D      1
     128       0       0       2       0                                D      2
128,1,1,1,1,0,0,1,0,0,0.0,0.0,1.0,1.0,0.0,0.0,1.0,1.0,1.0,1.0,1.0,1.0,  1P      1
0.0,0.0,0.0,10.0,0.0,0.0,0.0,2.0,0.0,10.0,2.0,0.0,0.0,1.0,0.0,1.0;      1P      2
S      1G      3D      2P      2                                        T      1