IGES file created via the IRIT solid modeling environment with irit2igs S      1
From C:/irit/extra/MSDLL/                                               S      2
1H,,1H;,4HIrit,20HC:/irit/extra/MSDLL/,12HIrit Ver. 14,                 G      1
12HIrit Ver. 14,32,38,6,308,15,7HUnknown,1.0,2,2HMM,,,                  G      2
13H251029.134315,0.000001,10.0,7HUnknown,7HUnknown,,,13H251029.134315;  G      3
     128       1               1       1       0       0       000000000D      1
     128       2       2      18       0       0       0SALGCC_@       0D      2
128,4,3,4,3,0,0,1,0,0,0.000000,0.000000,0.000000,0.000000,             1P      1
0.000000,1.000000,1.000000,1.000000,1.000000,1.000000,                 1P      2
0.000000,0.000000,0.000000,0.000000,1.000000,1.000000,                 1P      3
1.000000,1.000000,1.000000,1.000000,1.000000,1.000000,                 1P      4
1.000000,1.000000,1.000000,1.000000,1.000000,1.000000,                 1P      5
1.000000,1.000000,1.000000,1.000000,1.000000,1.000000,                 1P      6
1.000000,1.000000,1.000000,1.000000,0.400000,0.400000,                 1P      7
0.000000,0.600000,0.600000,0.000000,1.000000,0.400000,                 1P      8
0.000000,1.200000,0.600000,0.000000,1.600000,0.400000,                 1P      9
0.000000,0.200000,0.600000,0.000000,0.400000,0.800000,                 1P     10
0.000000,0.800000,0.600000,0.000000,1.000000,0.800000,                 1P     11
0.000000,1.400000,0.600000,0.000000,0.600000,0.800000,                 1P     12
0.000000,0.800000,1.000000,0.000000,1.200000,0.800000,                 1P     13
0.000000,1.400000,1.000000,0.000000,1.800000,0.800000,                 1P     14
0.000000,0.400000,1.200000,0.000000,0.600000,1.400000,                 1P     15
0.000000,1.000000,1.200000,0.000000,1.200000,1.400000,                 1P     16
0.000000,1.600000,1.200000,0.000000,0.000000,1.000000,                 1P     17
0.000000,1.000000;                                                     1P     18
S      2G      3D      2P     18                                        T      1
