solid SALGCC_@_2
  facet normal -0.000000000000000 -1.000000000000000  0.000000000000000
    outer loop
      vertex  1.624968393213469  0.000000000000000  0.275004515022107
      vertex  2.000000000724782  0.000000000000000 -0.150018060994943
      vertex  2.199999999999800  0.000000000000000  0.199999999999920
    endloop
  endfacet
  facet normal  0.000000000000000 -1.000000000000000  0.000000000000000
    outer loop
      vertex  1.624968393213469  0.000000000000000  0.275004515022107
      vertex  1.424968393938451  0.000000000000000 -0.075013545972755
      vertex  2.000000000724782  0.000000000000000 -0.150018060994943
    endloop
  endfacet
  facet normal -0.000000000000000 -1.000000000000000  0.000000000000000
    outer loop
      vertex  1.199999999999920  0.000000000000000  0.199999999999920
      vertex  1.424968393938451  0.000000000000000 -0.075013545972755
      vertex  1.624968393213469  0.000000000000000  0.275004515022107
    endloop
  endfacet
  facet normal -0.000000000000000 -1.000000000000000  0.000000000000000
    outer loop
      vertex  1.199999999999920  0.000000000000000  0.199999999999920
      vertex  1.000000000724902  0.000000000000000 -0.150018060994943
      vertex  1.424968393938451  0.000000000000000 -0.075013545972755
    endloop
  endfacet
  facet normal -0.000000000000000 -1.000000000000000 -0.000000000000000
    outer loop
      vertex  1.424968393938451  0.000000000000000 -0.075013545972755
      vertex  2.199999999999880  0.000000000000000 -0.400000000000000
      vertex  2.000000000724782  0.000000000000000 -0.150018060994943
    endloop
  endfacet
  facet normal -0.000000000000000 -1.000000000000000 -0.000000000000000
    outer loop
      vertex  1.424968393938451  0.000000000000000 -0.075013545972755
      vertex  1.624968393213549  0.000000000000000 -0.324995484977813
      vertex  2.199999999999880  0.000000000000000 -0.400000000000000
    endloop
  endfacet
  facet normal -0.000000000000000 -1.000000000000000 -0.000000000000000
    outer loop
      vertex  1.000000000724902  0.000000000000000 -0.150018060994943
      vertex  1.624968393213549  0.000000000000000 -0.324995484977813
      vertex  1.424968393938451  0.000000000000000 -0.075013545972755
    endloop
  endfacet
  facet normal -0.000000000000000 -1.000000000000000 -0.000000000000000
    outer loop
      vertex  1.000000000724902  0.000000000000000 -0.150018060994943
      vertex  1.200000000000000  0.000000000000000 -0.400000000000000
      vertex  1.624968393213549  0.000000000000000 -0.324995484977813
    endloop
  endfacet
endsolid

