IGES file created via the IRIT solid modeling environment with irit2igs S      1
From C:/temp/BsplineSrf.i                                               S      2
1H,,1H;,4HIrit,20HC:/temp/BsplineSrf.i,12HIrit Ver. 15,                 G      1
12HIrit Ver. 15,32,38,6,308,15,7HUnknown,1.0,2,2HMM,,,                  G      2
13H260526.092842,0.000001,10.0,7HUnknown,7HUnknown,,,13H260526.092842;  G      3
     128       1               1       1       0       0       000000000D      1
     128       2       2      21       0       0       0SREFINE_       0D      2
128,4,4,3,3,0,0,1,0,0,0.000000,0.000000,0.000000,0.000000,             1P      1
0.500000,1.000000,1.000000,1.000000,1.000000,0.000000,                 1P      2
0.000000,0.000000,0.000000,0.500000,1.000000,1.000000,                 1P      3
1.000000,1.000000,1.000000,1.000000,1.000000,1.000000,                 1P      4
1.000000,1.000000,1.000000,1.000000,1.000000,1.000000,                 1P      5
1.000000,1.000000,1.000000,1.000000,1.000000,1.000000,                 1P      6
1.000000,1.000000,1.000000,1.000000,1.000000,1.000000,                 1P      7
1.000000,1.000000,1.000000,1.000000,0.000000,0.000000,                 1P      8
1.000000,0.276142,0.000000,0.776142,0.776142,0.000000,                 1P      9
0.276142,1.000000,0.000000,0.000000,1.000000,0.000000,                 1P     10
1.000000,-0.276142,0.000000,0.907953,0.000000,0.000000,                1P     11
0.546024,0.546024,0.000000,0.000000,0.907953,0.000000,                 1P     12
-0.276142,1.000000,0.000000,0.776142,-0.776142,0.000000,               1P     13
0.546024,-0.546024,0.000000,0.000000,0.000000,0.000000,                1P     14
-0.546024,0.546024,0.000000,-0.776142,0.776142,0.000000,               1P     15
0.276142,-1.000000,0.000000,0.000000,-0.907953,0.000000,               1P     16
-0.546024,-0.546024,0.000000,-0.907953,0.000000,0.000000,              1P     17
-1.000000,0.276142,0.000000,0.000000,-1.000000,0.000000,               1P     18
-0.276142,-1.000000,0.000000,-0.776142,-0.776142,0.000000,             1P     19
-1.000000,-0.276142,0.000000,-1.000000,0.000000,0.000000,              1P     20
0.000000,1.000000,0.000000,1.000000;                                   1P     21
S      2G      3D      2P     21                                        T      1
