IGES file created via the IRIT solid modeling environment with irit2igs S      1
From C:/temp/DiskSimpleSr                                               S      2
1H,,1H;,4HIrit,20HC:/temp/DiskSimpleSr,12HIrit Ver. 15,                 G      1
12HIrit Ver. 15,32,38,6,308,15,7HUnknown,1.0,2,2HMM,,,                  G      2
13H260526.093401,0.000001,10.0,7HUnknown,7HUnknown,,,13H260526.093401;  G      3
     128       1               1       1       0       0       000000000D      1
     128       2       2      15       0       0       0SBOOLONE       0D      2
128,3,3,3,3,0,0,1,0,0,0.000000,0.000000,0.000000,0.000000,             1P      1
1.000000,1.000000,1.000000,1.000000,0.000000,0.000000,                 1P      2
0.000000,0.000000,1.000000,1.000000,1.000000,1.000000,                 1P      3
1.000000,1.000000,1.000000,1.000000,1.000000,1.000000,                 1P      4
1.000000,1.000000,1.000000,1.000000,1.000000,1.000000,                 1P      5
1.000000,1.000000,1.000000,1.000000,1.000000,0.000000,                 1P      6
0.000000,1.000000,0.552285,0.000000,0.552285,1.000000,                 1P      7
0.000000,0.000000,1.000000,0.000000,1.000000,-0.552285,                1P      8
0.000000,0.631810,0.000000,0.000000,0.000000,0.631810,                 1P      9
0.000000,-0.552285,1.000000,0.000000,0.552285,-1.000000,               1P     10
0.000000,0.000000,-0.631810,0.000000,-0.631810,0.000000,               1P     11
0.000000,-1.000000,0.552285,0.000000,0.000000,-1.000000,               1P     12
0.000000,-0.552285,-1.000000,0.000000,-1.000000,-0.552285,             1P     13
0.000000,-1.000000,0.000000,0.000000,0.000000,1.000000,                1P     14
0.000000,1.000000;                                                     1P     15
S      2G      3D      2P     15                                        T      1
