IGES file created via the IRIT solid modeling environment with irit2igs S      1
From C:/temp/SimpleRevolv                                               S      2
1H,,1H;,4HIrit,20HC:/temp/SimpleRevolv,12HIrit Ver. 15,                 G      1
12HIrit Ver. 15,32,38,6,308,15,7HUnknown,1.0,2,2HMM,,,                  G      2
13H260526.092521,0.000001,10.0,7HUnknown,7HUnknown,,,13H260526.092521;  G      3
     128       1               1       1       0       0       000000000D      1
     128       2       2       5       0       0       0SPLANE_@       0D      2
128,1,1,1,1,0,0,1,0,0,0.000000,0.000000,1.000000,1.000000,             1P      1
0.000000,0.000000,1.000000,1.000000,1.000000,1.000000,                 1P      2
1.000000,1.000000,2.000000,0.000000,0.500000,1.000000,                 1P      3
0.000000,0.500000,2.000000,-0.000000,-0.500000,1.000000,               1P      4
-0.000000,-0.500000,0.000000,1.000000,0.000000,1.000000;               1P      5
S      2G      3D      2P      5                                        T      1
