IGES file created via the IRIT solid modeling environment with irit2igs S      1
From C:/irit/extra/MSDLL/                                               S      2
1H,,1H;,4HIrit,20HC:/irit/extra/MSDLL/,12HIrit Ver. 14,                 G      1
12HIrit Ver. 14,32,38,6,308,15,7HUnknown,1.0,2,2HMM,,,                  G      2
13H251029.134727,0.000001,10.0,7HUnknown,7HUnknown,,,13H251029.134727;  G      3
     128       1               1       1       0       0       000000000D      1
     128       2       2      12       0       0       0SALGCC_@       0D      2
128,3,2,3,2,0,0,1,0,0,0.000000,0.000000,0.000000,0.000000,             1P      1
1.000000,1.000000,1.000000,1.000000,0.000000,0.000000,                 1P      2
0.000000,1.000000,1.000000,1.000000,1.000000,1.000000,                 1P      3
1.000000,1.000000,1.000000,1.000000,1.000000,1.000000,                 1P      4
1.000000,1.000000,1.000000,1.000000,1.200000,0.000000,                 1P      5
-0.400000,1.400000,0.000000,-0.200000,1.800000,0.000000,               1P      6
-0.400000,2.200000,0.000000,-0.400000,0.800000,0.000000,               1P      7
-0.200000,1.000000,0.000000,0.000000,1.400000,0.000000,                1P      8
-0.200000,1.800000,0.000000,-0.200000,1.200000,0.000000,               1P      9
0.200000,1.400000,0.000000,0.400000,1.800000,0.000000,                 1P     10
0.200000,2.200000,0.000000,0.200000,0.000000,1.000000,                 1P     11
0.000000,1.000000;                                                     1P     12
S      2G      3D      2P     12                                        T      1
