IGES file created via the IRIT solid modeling environment with irit2igs S      1
From C:/irit/extra/MSDLL/                                               S      2
1H,,1H;,4HIrit,20HC:/irit/extra/MSDLL/,12HIrit Ver. 14,                 G      1
12HIrit Ver. 14,32,38,6,308,15,7HUnknown,1.0,2,2HMM,,,                  G      2
13H251029.134003,0.000001,10.0,7HUnknown,7HUnknown,,,13H251029.134003;  G      3
     128       1               1       1       0       0       000000000D      1
     128       2       2       9       0       0       0SRULED_@       0D      2
128,3,1,3,1,0,0,1,0,0,0.000000,0.000000,0.000000,0.000000,             1P      1
1.000000,1.000000,1.000000,1.000000,0.000000,0.000000,                 1P      2
1.000000,1.000000,1.000000,1.000000,1.000000,1.000000,                 1P      3
1.000000,1.000000,1.000000,1.000000,-0.429397,-0.014815,               1P      4
2.513503,0.447043,-0.340798,2.513503,0.679860,-0.744748,               1P      5
2.513503,1.183702,-0.557013,2.513503,-0.215155,0.879275,               1P      6
2.513503,0.376802,0.155880,2.513503,1.247221,0.865816,                 1P      7
2.513503,1.637151,0.315815,2.513503,0.000000,1.000000,                 1P      8
0.000000,1.000000;                                                     1P      9
S      2G      3D      2P      9                                        T      1
