IGES file created via the IRIT solid modeling environment with irit2igs S      1
From C:/irit/extra/guirit                                               S      2
1H,,1H;,4HIrit,20HC:/irit/extra/guirit,12HIrit Ver. 14,                 G      1
12HIrit Ver. 14,32,38,6,308,15,7HUnknown,1.0,2,2HMM,,,                  G      2
13H251029.133852,0.000001,10.0,7HUnknown,7HUnknown,,,13H251029.133852;  G      3
     128       1               1       1       0       0       000000000D      1
     128       2       2       9       0       0       0SRULED_@       0D      2
128,3,1,3,1,0,0,1,0,0,0.000000,0.000000,0.000000,0.000000,             1P      1
1.000000,1.000000,1.000000,1.000000,0.000000,0.000000,                 1P      2
1.000000,1.000000,1.000000,1.000000,1.000000,1.000000,                 1P      3
1.000000,1.000000,1.000000,1.000000,-0.783595,-0.758549,               1P      4
0.000000,0.746830,-0.702489,0.000000,1.352270,-1.167780,               1P      5
0.000000,1.996960,-0.567947,0.000000,-1.019790,0.728550,               1P      6
0.000000,0.329264,0.005000,0.000000,1.201330,1.624710,                 1P      7
0.000000,2.136030,1.036900,0.000000,0.000000,1.000000,                 1P      8
0.000000,1.000000;                                                     1P      9
S      2G      3D      2P      9                                        T      1
